<?xml version="1.0" encoding="UTF-8" standalone="no"?>
<!DOCTYPE svg PUBLIC "-//W3C//DTD SVG 1.1//EN" "http://www.w3.org/Graphics/SVG/1.1/DTD/svg11.dtd">
<svg width="100%" height="100%" viewBox="0 0 310 83" version="1.1" xmlns="http://www.w3.org/2000/svg" xmlns:xlink="http://www.w3.org/1999/xlink" xml:space="preserve" xmlns:serif="http://www.serif.com/" style="fill-rule:evenodd;clip-rule:evenodd;stroke-linejoin:round;stroke-miterlimit:1.41421;">
    <g id="Artboard1" transform="matrix(1,0,0,1.02944,-103.422,-338.672)">
        <rect x="103.422" y="328.988" width="309.291" height="79.707" style="fill:none;"/>
        <clipPath id="_clip1">
            <rect x="103.422" y="328.988" width="309.291" height="79.707"/>
        </clipPath>
        <g clip-path="url(#_clip1)">
            <g transform="matrix(1,0,0,0.971405,0.421698,41.3778)">
                <g transform="matrix(1,0,0,1,-0.266476,0)">
                    <path d="M247.991,298.251L255.304,298.251L269.999,331.65L284.413,298.251L291.761,298.251L291.761,349.509L283.991,349.509L283.991,317.552L283.816,317.552L273.093,342.162L266.624,342.162L255.901,317.552L255.761,317.552L255.761,349.509L247.991,349.509L247.991,298.251Z" style="fill-rule:nonzero;"/>
                    <path d="M318.304,335.166L322.909,329.857L328.886,334.603C329.378,332.869 329.624,329.294 329.624,323.88C329.624,318.841 329.448,315.408 329.097,313.58C328.722,311.845 328.03,310.427 327.023,309.326C326.249,308.271 325.218,307.392 323.929,306.689C322.569,306.009 320.964,305.646 319.112,305.599C317.284,305.646 315.714,306.009 314.401,306.689C313.066,307.392 311.987,308.271 311.167,309.326C310.159,310.427 309.491,311.845 309.163,313.58C308.788,315.408 308.601,318.841 308.601,323.88C308.601,328.919 308.788,332.33 309.163,334.111C309.491,335.892 310.159,337.333 311.167,338.435C311.987,339.49 313.066,340.345 314.401,341.001C315.714,341.775 317.284,342.162 319.112,342.162C321.503,342.162 323.413,341.564 324.843,340.369L318.304,335.166ZM331.206,345.466C328.183,348.349 324.151,349.837 319.112,349.931C315.081,349.837 311.718,348.853 309.023,346.978C306.28,345.173 304.288,343.087 303.046,340.72C302.671,339.947 302.331,339.208 302.026,338.505C301.745,337.779 301.511,336.865 301.323,335.763C300.972,333.701 300.796,329.74 300.796,323.88C300.796,317.927 300.972,313.943 301.323,311.927C301.698,309.912 302.273,308.283 303.046,307.041C304.288,304.673 306.28,302.564 309.023,300.712C311.718,298.837 315.081,297.876 319.112,297.83C323.191,297.876 326.589,298.837 329.308,300.712C332.003,302.564 333.948,304.673 335.144,307.041C336.011,308.283 336.609,309.912 336.937,311.927C337.241,313.943 337.394,317.927 337.394,323.88C337.394,329.201 337.276,332.916 337.042,335.025C336.737,337.134 336.234,338.775 335.53,339.947L342.28,345.326L337.675,350.669L331.206,345.466Z" style="fill-rule:nonzero;"/>
                    <path d="M355.148,305.177L341.12,305.177L341.12,298.251L376.98,298.251L376.98,305.177L362.952,305.177L362.952,349.509L355.148,349.509L355.148,305.177Z" style="fill-rule:nonzero;"/>
                    <path d="M391.148,305.177L377.12,305.177L377.12,298.251L412.98,298.251L412.98,305.177L398.952,305.177L398.952,349.509L391.148,349.509L391.148,305.177Z" style="fill-rule:nonzero;"/>
                </g>
                <g transform="matrix(1,0,0,1,0.212934,12.2682)">
                    <path d="M257.412,357.469L257.412,358.789C257.412,359.449 257.287,360.074 257.037,360.664C256.787,361.254 256.442,361.779 256.002,362.239C255.562,362.699 255.047,363.064 254.457,363.334C253.867,363.604 253.232,363.739 252.552,363.739C251.972,363.739 251.382,363.659 250.782,363.499C250.182,363.339 249.642,363.059 249.162,362.659C248.682,362.259 248.287,361.744 247.977,361.114C247.667,360.484 247.512,359.679 247.512,358.699L247.512,346.939C247.512,346.239 247.632,345.589 247.872,344.989C248.112,344.389 248.452,343.869 248.892,343.429C249.332,342.989 249.857,342.644 250.467,342.394C251.077,342.144 251.752,342.019 252.492,342.019C253.932,342.019 255.102,342.489 256.002,343.429C256.442,343.889 256.787,344.434 257.037,345.064C257.287,345.694 257.412,346.379 257.412,347.119L257.412,348.319L254.352,348.319L254.352,347.299C254.352,346.699 254.182,346.179 253.842,345.739C253.502,345.299 253.042,345.079 252.462,345.079C251.702,345.079 251.197,345.314 250.947,345.784C250.697,346.254 250.572,346.849 250.572,347.569L250.572,358.489C250.572,359.109 250.707,359.629 250.977,360.049C251.247,360.469 251.732,360.679 252.432,360.679C252.632,360.679 252.847,360.644 253.077,360.574C253.307,360.504 253.522,360.389 253.722,360.229C253.902,360.069 254.052,359.849 254.172,359.569C254.292,359.289 254.352,358.939 254.352,358.519L254.352,357.469L257.412,357.469Z" style="fill-rule:nonzero;"/>
                    <path d="M259.542,342.199L262.602,342.199L262.602,359.269C262.602,359.849 262.707,360.244 262.917,360.454C263.127,360.664 263.522,360.799 264.102,360.859L264.102,363.739C263.402,363.739 262.772,363.684 262.212,363.574C261.652,363.464 261.172,363.249 260.772,362.929C260.372,362.629 260.067,362.204 259.857,361.654C259.647,361.104 259.542,360.379 259.542,359.479L259.542,342.199Z" style="fill-rule:nonzero;"/>
                    <path d="M265.302,363.559L265.302,348.349L268.362,348.349L268.362,363.559L265.302,363.559ZM265.302,345.259L265.302,342.199L268.362,342.199L268.362,345.259L265.302,345.259Z" style="fill-rule:nonzero;"/>
                    <path d="M279.732,357.109L273.672,357.109L273.672,359.179C273.672,359.659 273.807,360.029 274.077,360.289C274.347,360.549 274.712,360.679 275.172,360.679C275.752,360.679 276.137,360.509 276.327,360.169C276.517,359.829 276.632,359.489 276.672,359.149L279.732,359.149C279.732,360.489 279.322,361.569 278.502,362.389C278.102,362.809 277.622,363.139 277.062,363.379C276.502,363.619 275.872,363.739 275.172,363.739C274.212,363.739 273.397,363.539 272.727,363.139C272.057,362.739 271.542,362.209 271.182,361.549C270.962,361.149 270.812,360.689 270.732,360.169C270.652,359.649 270.612,359.079 270.612,358.459L270.612,353.449C270.612,352.829 270.652,352.259 270.732,351.739C270.812,351.219 270.962,350.759 271.182,350.359C271.542,349.699 272.057,349.169 272.727,348.769C273.397,348.369 274.212,348.169 275.172,348.169C275.872,348.169 276.507,348.289 277.077,348.529C277.647,348.769 278.132,349.099 278.532,349.519C279.332,350.419 279.732,351.549 279.732,352.909L279.732,357.109ZM273.672,354.709L276.672,354.709L276.672,352.969C276.672,352.389 276.537,351.954 276.267,351.664C275.997,351.374 275.632,351.229 275.172,351.229C274.712,351.229 274.347,351.374 274.077,351.664C273.807,351.954 273.672,352.389 273.672,352.969L273.672,354.709Z" style="fill-rule:nonzero;"/>
                    <path d="M281.982,363.559L281.982,348.349L285.042,348.349L285.042,349.819L285.102,349.819C285.422,349.339 285.807,348.944 286.257,348.634C286.707,348.324 287.282,348.169 287.982,348.169C288.362,348.169 288.742,348.234 289.122,348.364C289.502,348.494 289.842,348.709 290.142,349.009C290.442,349.309 290.682,349.694 290.862,350.164C291.042,350.634 291.132,351.209 291.132,351.889L291.132,363.559L288.072,363.559L288.072,353.029C288.072,352.469 287.942,352.029 287.682,351.709C287.422,351.389 287.052,351.229 286.572,351.229C285.992,351.229 285.592,351.409 285.372,351.769C285.152,352.129 285.042,352.649 285.042,353.329L285.042,363.559L281.982,363.559Z" style="fill-rule:nonzero;"/>
                    <path d="M293.652,348.349L293.652,343.729L296.712,343.729L296.712,348.349L298.602,348.349L298.602,350.749L296.712,350.749L296.712,359.179C296.712,359.539 296.747,359.819 296.817,360.019C296.887,360.219 297.002,360.369 297.162,360.469C297.322,360.569 297.517,360.629 297.747,360.649C297.977,360.669 298.262,360.679 298.602,360.679L298.602,363.559L297.342,363.559C296.642,363.559 296.057,363.449 295.587,363.229C295.117,363.009 294.742,362.729 294.462,362.389C294.182,362.049 293.977,361.664 293.847,361.234C293.717,360.804 293.652,360.389 293.652,359.989L293.652,350.749L292.122,350.749L292.122,348.349L293.652,348.349Z" style="fill-rule:nonzero;"/>
                    <path d="M305.532,363.559L305.532,342.199L314.652,342.199L314.652,345.079L308.592,345.079L308.592,351.559L313.872,351.559L313.872,354.439L308.592,354.439L308.592,363.559L305.532,363.559Z" style="fill-rule:nonzero;"/>
                    <path d="M315.912,363.559L315.912,348.349L318.972,348.349L318.972,349.969C319.592,349.409 320.202,348.969 320.802,348.649C321.402,348.329 322.142,348.169 323.022,348.169L323.022,351.409C322.722,351.289 322.412,351.229 322.092,351.229C321.772,351.229 321.427,351.284 321.057,351.394C320.687,351.504 320.352,351.689 320.052,351.949C319.732,352.209 319.472,352.549 319.272,352.969C319.072,353.389 318.972,353.909 318.972,354.529L318.972,363.559L315.912,363.559Z" style="fill-rule:nonzero;"/>
                    <path d="M329.862,363.559L329.862,361.999L329.802,361.999C329.402,362.559 328.997,362.989 328.587,363.289C328.177,363.589 327.602,363.739 326.862,363.739C326.502,363.739 326.137,363.684 325.767,363.574C325.397,363.464 325.042,363.259 324.702,362.959C324.362,362.679 324.087,362.274 323.877,361.744C323.667,361.214 323.562,360.529 323.562,359.689C323.562,358.829 323.632,358.074 323.772,357.424C323.912,356.774 324.172,356.229 324.552,355.789C324.912,355.369 325.402,355.054 326.022,354.844C326.642,354.634 327.432,354.529 328.392,354.529C328.492,354.529 328.602,354.529 328.722,354.529C328.842,354.529 328.952,354.539 329.052,354.559C329.152,354.579 329.272,354.589 329.412,354.589C329.552,354.589 329.702,354.599 329.862,354.619L329.862,353.029C329.862,352.509 329.752,352.079 329.532,351.739C329.312,351.399 328.912,351.229 328.332,351.229C327.932,351.229 327.567,351.359 327.237,351.619C326.907,351.879 326.692,352.259 326.592,352.759L323.622,352.759C323.702,351.399 324.162,350.299 325.002,349.459C325.402,349.059 325.882,348.744 326.442,348.514C327.002,348.284 327.632,348.169 328.332,348.169C328.972,348.169 329.572,348.269 330.132,348.469C330.692,348.669 331.182,348.969 331.602,349.369C332.002,349.769 332.322,350.269 332.562,350.869C332.802,351.469 332.922,352.169 332.922,352.969L332.922,363.559L329.862,363.559ZM329.862,357.019C329.522,356.959 329.242,356.929 329.022,356.929C328.362,356.929 327.797,357.084 327.327,357.394C326.857,357.704 326.622,358.269 326.622,359.089C326.622,359.669 326.762,360.139 327.042,360.499C327.322,360.859 327.712,361.039 328.212,361.039C328.732,361.039 329.137,360.869 329.427,360.529C329.717,360.189 329.862,359.709 329.862,359.089L329.862,357.019Z" style="fill-rule:nonzero;"/>
                    <path d="M335.172,363.559L335.172,348.349L338.232,348.349L338.232,349.819L338.292,349.819C338.612,349.339 338.997,348.944 339.447,348.634C339.897,348.324 340.472,348.169 341.172,348.169C341.832,348.169 342.382,348.329 342.822,348.649C343.262,348.969 343.622,349.319 343.902,349.699C344.282,349.279 344.702,348.919 345.162,348.619C345.622,348.319 346.262,348.169 347.082,348.169C347.462,348.169 347.852,348.234 348.252,348.364C348.652,348.494 349.012,348.709 349.332,349.009C349.652,349.309 349.912,349.694 350.112,350.164C350.312,350.634 350.412,351.209 350.412,351.889L350.412,363.559L347.352,363.559L347.352,353.029C347.352,352.469 347.222,352.029 346.962,351.709C346.702,351.389 346.332,351.229 345.852,351.229C345.272,351.229 344.872,351.409 344.652,351.769C344.432,352.129 344.322,352.649 344.322,353.329L344.322,363.559L341.262,363.559L341.262,353.029C341.262,352.469 341.132,352.029 340.872,351.709C340.612,351.389 340.242,351.229 339.762,351.229C339.182,351.229 338.782,351.409 338.562,351.769C338.342,352.129 338.232,352.649 338.232,353.329L338.232,363.559L335.172,363.559Z" style="fill-rule:nonzero;"/>
                    <path d="M361.782,357.109L355.722,357.109L355.722,359.179C355.722,359.659 355.857,360.029 356.127,360.289C356.397,360.549 356.762,360.679 357.222,360.679C357.802,360.679 358.187,360.509 358.377,360.169C358.567,359.829 358.682,359.489 358.722,359.149L361.782,359.149C361.782,360.489 361.372,361.569 360.552,362.389C360.152,362.809 359.672,363.139 359.112,363.379C358.552,363.619 357.922,363.739 357.222,363.739C356.262,363.739 355.447,363.539 354.777,363.139C354.107,362.739 353.592,362.209 353.232,361.549C353.012,361.149 352.862,360.689 352.782,360.169C352.702,359.649 352.662,359.079 352.662,358.459L352.662,353.449C352.662,352.829 352.702,352.259 352.782,351.739C352.862,351.219 353.012,350.759 353.232,350.359C353.592,349.699 354.107,349.169 354.777,348.769C355.447,348.369 356.262,348.169 357.222,348.169C357.922,348.169 358.557,348.289 359.127,348.529C359.697,348.769 360.182,349.099 360.582,349.519C361.382,350.419 361.782,351.549 361.782,352.909L361.782,357.109ZM355.722,354.709L358.722,354.709L358.722,352.969C358.722,352.389 358.587,351.954 358.317,351.664C358.047,351.374 357.682,351.229 357.222,351.229C356.762,351.229 356.397,351.374 356.127,351.664C355.857,351.954 355.722,352.389 355.722,352.969L355.722,354.709Z" style="fill-rule:nonzero;"/>
                    <path d="M378.822,348.349L375.222,363.559L372.522,363.559L370.842,354.529L370.782,354.529L369.102,363.559L366.402,363.559L362.802,348.349L366.042,348.349L367.902,357.799L367.962,357.799L369.672,348.349L372.072,348.349L373.692,357.799L373.752,357.799L375.582,348.349L378.822,348.349Z" style="fill-rule:nonzero;"/>
                    <path d="M379.662,353.449C379.662,352.829 379.702,352.259 379.782,351.739C379.862,351.219 380.012,350.759 380.232,350.359C380.592,349.699 381.107,349.169 381.777,348.769C382.447,348.369 383.262,348.169 384.222,348.169C385.182,348.169 385.997,348.369 386.667,348.769C387.337,349.169 387.852,349.699 388.212,350.359C388.432,350.759 388.582,351.219 388.662,351.739C388.742,352.259 388.782,352.829 388.782,353.449L388.782,358.459C388.782,359.079 388.742,359.649 388.662,360.169C388.582,360.689 388.432,361.149 388.212,361.549C387.852,362.209 387.337,362.739 386.667,363.139C385.997,363.539 385.182,363.739 384.222,363.739C383.262,363.739 382.447,363.539 381.777,363.139C381.107,362.739 380.592,362.209 380.232,361.549C380.012,361.149 379.862,360.689 379.782,360.169C379.702,359.649 379.662,359.079 379.662,358.459L379.662,353.449ZM382.722,358.939C382.722,359.519 382.857,359.954 383.127,360.244C383.397,360.534 383.762,360.679 384.222,360.679C384.682,360.679 385.047,360.534 385.317,360.244C385.587,359.954 385.722,359.519 385.722,358.939L385.722,352.969C385.722,352.389 385.587,351.954 385.317,351.664C385.047,351.374 384.682,351.229 384.222,351.229C383.762,351.229 383.397,351.374 383.127,351.664C382.857,351.954 382.722,352.389 382.722,352.969L382.722,358.939Z" style="fill-rule:nonzero;"/>
                    <path d="M391.032,363.559L391.032,348.349L394.092,348.349L394.092,349.969C394.712,349.409 395.322,348.969 395.922,348.649C396.522,348.329 397.262,348.169 398.142,348.169L398.142,351.409C397.842,351.289 397.532,351.229 397.212,351.229C396.892,351.229 396.547,351.284 396.177,351.394C395.807,351.504 395.472,351.689 395.172,351.949C394.852,352.209 394.592,352.549 394.392,352.969C394.192,353.389 394.092,353.909 394.092,354.529L394.092,363.559L391.032,363.559Z" style="fill-rule:nonzero;"/>
                    <path d="M399.372,363.559L399.372,342.199L402.432,342.199L402.432,354.979L402.492,354.979L406.182,348.349L409.242,348.349L405.612,354.529L409.992,363.559L406.662,363.559L403.902,356.989L402.432,359.299L402.432,363.559L399.372,363.559Z" style="fill-rule:nonzero;"/>
                </g>
            </g>
            <g transform="matrix(0.318829,0,0,0.309712,-80.1126,182.674)">
                <g transform="matrix(0.96519,0,0,1.05457,20.0847,-25.9475)">
                    <path d="M991.401,534.784C991.401,502.074 962.386,475.518 926.647,475.518L641.729,475.518C605.99,475.518 576.975,502.074 576.975,534.784L576.975,653.316C576.975,686.026 605.99,712.582 641.729,712.582L926.647,712.582C962.386,712.582 991.401,686.026 991.401,653.316L991.401,534.784Z" style="fill:url(#_Linear2);"/>
                </g>
                <g transform="matrix(0.96519,0,0,1.05457,20.0847,-25.9475)">
                    <path d="M991.401,534.784C991.401,502.074 962.386,475.518 926.647,475.518L641.729,475.518C605.99,475.518 576.975,502.074 576.975,534.784L576.975,545.785C576.975,578.495 784.659,654.323 784.659,654.323C784.659,654.323 991.401,578.487 991.401,545.778L991.401,534.784Z" style="fill:url(#_Linear3);"/>
                </g>
            </g>
        </g>
    </g>
    <defs>
        <linearGradient id="_Linear2" x1="0" y1="0" x2="1" y2="0" gradientUnits="userSpaceOnUse" gradientTransform="matrix(207.213,0,0,118.532,784.188,594.05)"><stop offset="0" style="stop-color:rgb(200,27,0);stop-opacity:1"/><stop offset="1" style="stop-color:rgb(255,38,0);stop-opacity:1"/></linearGradient>
        <linearGradient id="_Linear3" x1="0" y1="0" x2="1" y2="0" gradientUnits="userSpaceOnUse" gradientTransform="matrix(414.426,0,0,179.028,576.975,565.032)"><stop offset="0" style="stop-color:rgb(255,147,0);stop-opacity:1"/><stop offset="1" style="stop-color:rgb(207,120,0);stop-opacity:1"/></linearGradient>
    </defs>
</svg>
