<?xml version="1.0" encoding="UTF-8" standalone="no"?>
<!DOCTYPE svg PUBLIC "-//W3C//DTD SVG 1.1//EN" "http://www.w3.org/Graphics/SVG/1.1/DTD/svg11.dtd">
<svg width="100%" height="100%" viewBox="0 0 310 83" version="1.1" xmlns="http://www.w3.org/2000/svg" xmlns:xlink="http://www.w3.org/1999/xlink" xml:space="preserve" xmlns:serif="http://www.serif.com/" style="fill-rule:evenodd;clip-rule:evenodd;stroke-linejoin:round;stroke-miterlimit:1.41421;">
    <g id="Artboard1" transform="matrix(1,0,0,1.02944,-103.422,-338.672)">
        <rect x="103.422" y="328.988" width="309.291" height="79.707" style="fill:none;"/>
        <clipPath id="_clip1">
            <rect x="103.422" y="328.988" width="309.291" height="79.707"/>
        </clipPath>
        <g clip-path="url(#_clip1)">
            <g transform="matrix(1,0,0,0.971405,0.421698,41.3778)">
                <g transform="matrix(1,0,0,1,-0.266476,0)">
                    <text x="242.577px" y="349.509px" style="font-family:'DINAlternate-Bold', 'DIN Alternate', sans-serif;font-weight:700;font-size:72px;">MQTT</text>
                </g>
                <g transform="matrix(1,0,0,1,0.212934,12.2682)">
                    <text x="246.252px" y="363.559px" style="font-family:'DINCondensed-Bold', 'DIN Condensed';font-weight:700;font-stretch:condensed;font-size:30px;">Client F<tspan x="314.652px 322.812px 333.912px " y="363.559px 363.559px 363.559px ">ram</tspan>ew<tspan x="378.672px 389.772px " y="363.559px 363.559px ">or</tspan>k</text>
                </g>
            </g>
            <g transform="matrix(0.318829,0,0,0.309712,-80.1126,182.674)">
                <g transform="matrix(0.96519,0,0,1.05457,20.0847,-25.9475)">
                    <path d="M991.401,534.784C991.401,502.074 962.386,475.518 926.647,475.518L641.729,475.518C605.99,475.518 576.975,502.074 576.975,534.784L576.975,653.316C576.975,686.026 605.99,712.582 641.729,712.582L926.647,712.582C962.386,712.582 991.401,686.026 991.401,653.316L991.401,534.784Z" style="fill:url(#_Linear2);"/>
                </g>
                <g transform="matrix(0.96519,0,0,1.05457,20.0847,-25.9475)">
                    <path d="M991.401,534.784C991.401,502.074 962.386,475.518 926.647,475.518L641.729,475.518C605.99,475.518 576.975,502.074 576.975,534.784L576.975,545.785C576.975,578.495 784.659,654.323 784.659,654.323C784.659,654.323 991.401,578.487 991.401,545.778L991.401,534.784Z" style="fill:url(#_Linear3);"/>
                </g>
            </g>
        </g>
    </g>
    <defs>
        <linearGradient id="_Linear2" x1="0" y1="0" x2="1" y2="0" gradientUnits="userSpaceOnUse" gradientTransform="matrix(207.213,0,0,118.532,784.188,594.05)"><stop offset="0" style="stop-color:rgb(200,27,0);stop-opacity:1"/><stop offset="1" style="stop-color:rgb(255,38,0);stop-opacity:1"/></linearGradient>
        <linearGradient id="_Linear3" x1="0" y1="0" x2="1" y2="0" gradientUnits="userSpaceOnUse" gradientTransform="matrix(414.426,0,0,179.028,576.975,565.032)"><stop offset="0" style="stop-color:rgb(255,147,0);stop-opacity:1"/><stop offset="1" style="stop-color:rgb(207,120,0);stop-opacity:1"/></linearGradient>
    </defs>
</svg>
